<svg width="48" height="48" viewBox="0 0 48 48" fill="none" xmlns="http://www.w3.org/2000/svg">
<rect width="48" height="48" rx="8" fill="#3772FF"/>
<path d="M32.0001 8V10.2319C29.5711 8.81632 26.812 8.06584 24.0007 8.056C21.9016 8.02432 19.8182 8.42083 17.8775 9.2213C15.9368 10.0218 14.1797 11.2094 12.7134 12.7117C11.1968 14.17 9.99601 15.9244 9.18551 17.8661C8.375 19.8077 7.97207 21.8952 8.0017 23.999C7.97042 26.1044 8.37015 28.1939 9.1763 30.1392C9.98245 32.0844 11.178 33.8441 12.6894 35.3102C14.1535 36.8243 15.9128 38.0216 17.8585 38.828C19.8042 39.6343 21.8948 40.0325 24.0007 39.9979C26.9518 39.9962 29.8431 39.1646 32.3441 37.5981C32.6695 38.2944 33.1783 38.889 33.816 39.318C34.4538 39.7698 35.2183 40.0079 35.9999 39.9979H39.9996V8H32.0001ZM26.8565 19.2553C26.871 18.9636 26.9466 18.6783 27.0783 18.4177C27.21 18.1571 27.3949 17.927 27.6211 17.7423C27.8473 17.5576 28.1096 17.4224 28.3913 17.3454C28.673 17.2684 28.9677 17.2514 29.2563 17.2954C29.8473 17.4935 30.346 17.8998 30.6595 18.4385C30.973 18.9772 31.0799 19.6115 30.9602 20.2232C30.9469 20.5153 30.8721 20.8013 30.7408 21.0625C30.6095 21.3237 30.4246 21.5543 30.1981 21.7392C29.9717 21.9242 29.7088 22.0593 29.4266 22.1358C29.1444 22.2122 28.8492 22.2284 28.5604 22.1831C27.9694 21.985 27.4707 21.5787 27.1572 21.04C26.8437 20.5013 26.7368 19.867 26.8565 19.2553ZM22.2488 14.7036C22.5162 14.5492 22.8131 14.4529 23.1202 14.4208C23.4273 14.3888 23.7377 14.4218 24.0312 14.5176C24.3248 14.6134 24.5948 14.77 24.8238 14.977C25.0529 15.1841 25.2358 15.4371 25.3606 15.7195C25.7106 16.2748 25.8461 16.9387 25.7415 17.5867C25.637 18.2347 25.2996 18.8223 24.7926 19.2393C24.5252 19.3936 24.2283 19.49 23.9212 19.522C23.6141 19.554 23.3037 19.5211 23.0102 19.4252C22.7166 19.3294 22.4466 19.1729 22.2175 18.9658C21.9885 18.7587 21.8056 18.5057 21.6808 18.2233C21.3307 17.6681 21.1953 17.0042 21.2999 16.3562C21.4044 15.7081 21.7418 15.1205 22.2488 14.7036ZM17.0411 16.9674C17.3082 16.8118 17.6053 16.7144 17.9127 16.6817C18.2201 16.649 18.5309 16.6817 18.8248 16.7776C19.1187 16.8736 19.389 17.0306 19.6179 17.2384C19.8467 17.4462 20.0291 17.7001 20.1529 17.9834C20.503 18.5386 20.6384 19.2025 20.5339 19.8505C20.4293 20.4986 20.0919 21.0862 19.585 21.5031C19.3173 21.6585 19.0198 21.7555 18.7121 21.7877C18.4043 21.8198 18.0932 21.7864 17.7992 21.6897C17.5052 21.593 17.2351 21.4351 17.0065 21.2265C16.778 21.0178 16.5962 20.7631 16.4732 20.4792C16.1236 19.9252 15.9885 19.2626 16.093 18.6159C16.1976 17.9692 16.5348 17.383 17.0411 16.9674ZM18.441 26.5668C18.2768 26.8098 18.0632 27.0155 17.8142 27.1705C17.5652 27.3255 17.2863 27.4263 16.9958 27.4663C16.7052 27.5063 16.4095 27.4846 16.1278 27.4027C15.8462 27.3207 15.585 27.1804 15.3612 26.9908C14.8382 26.6585 14.453 26.1484 14.2766 25.5545C14.1002 24.9605 14.1445 24.3228 14.4013 23.759C14.5655 23.5159 14.7791 23.3102 15.0281 23.1553C15.2771 23.0003 15.556 22.8995 15.8465 22.8595C16.1371 22.8195 16.4328 22.8412 16.7145 22.9231C16.9961 23.005 17.2573 23.1454 17.4811 23.335C18.006 23.6675 18.3925 24.179 18.569 24.7748C18.7455 25.3705 18.7001 26.01 18.441 26.5748V26.5668ZM30.9362 29.1986C29.5283 30.2786 27.4644 29.0306 25.7526 29.7586C24.0007 30.3985 23.3607 32.7984 21.6008 32.9664C19.8409 33.1344 18.489 31.2465 20.0969 27.7667C21.1848 25.3669 20.8969 23.391 22.8327 22.5511C24.7686 21.7111 25.9925 23.463 28.4324 24.4149C32.0002 25.8068 32.3441 28.1187 30.9362 29.1986Z" fill="#FCF0E3"/>
</svg>
