<svg width="56" height="57" viewBox="0 0 56 57" fill="none" xmlns="http://www.w3.org/2000/svg">
<circle cx="28" cy="28.8564" r="27" stroke="#36D6AD" stroke-width="2"/>
<path d="M28.7 24.6558C26.6576 24.6558 24.6992 23.8446 23.2552 22.4006C21.8112 20.9566 21 18.9982 21 16.9558C21 14.9134 21.8112 12.955 23.2552 11.5111C24.6992 10.0671 26.6576 9.25586 28.7 9.25586C30.7424 9.25586 32.7008 10.0671 34.1448 11.5111C35.5888 12.955 36.3999 14.9134 36.3999 16.9558C36.3975 18.9974 35.5856 20.9542 34.1424 22.3982C32.6984 23.8414 30.7416 24.6542 28.7 24.6558ZM28.7 10.6559C27.0288 10.6559 25.4264 11.3199 24.2448 12.5014C23.0632 13.683 22.4 15.2854 22.4 16.9558C22.4 18.6262 23.064 20.2294 24.2448 21.4102C25.4264 22.5918 27.0288 23.2558 28.7 23.2558C30.3712 23.2558 31.9728 22.5918 33.1544 21.4102C34.336 20.2286 35 18.6262 35 16.9558C34.9984 15.2854 34.3336 13.6838 33.1528 12.503C31.972 11.3223 30.3704 10.6575 28.7 10.6559Z" fill="#36D6AD"/>
<path d="M42.3703 44.2576H15.0296C14.4616 44.2568 14.0008 43.796 14 43.228V40.7576C14 36.8592 15.5488 33.12 18.3056 30.3632C21.0624 27.6064 24.8016 26.0576 28.7 26.0576C32.5983 26.0576 36.3375 27.6064 39.0943 30.3632C41.8511 33.12 43.3999 36.8592 43.3999 40.7576V43.228C43.3991 43.796 42.9383 44.2568 42.3703 44.2576ZM15.4 42.8576H41.9999V40.7576C41.9999 37.2304 40.5991 33.8472 38.1047 31.3536C35.6103 28.8592 32.2279 27.4576 28.7008 27.4576C25.1736 27.4576 21.7904 28.8592 19.296 31.3536C16.8016 33.848 15.4008 37.2304 15.4008 40.7576V42.8576H15.4Z" fill="#36D6AD"/>
</svg>
